# xmcd CD database file
#
# Track frame offsets:
#	150
#	33419
#	65112
#	94286
#	125768
#	149360
#	176959
#	205000
#	233263
#	262419
#	290944
#	309013
#
# Disc length: 4512 seconds
#
# Revision: 0
# Processed by: cddbd v1.5.1PL0 Copyright (c) Steve Scherf et al.
# Submitted via: CDex 1.50beta10
#
DISCID=bd119e0c
DTITLE=Ruben Blades - The Best
DYEAR=1995
DGENRE=Salsa
TTITLE0=Pedro Navaja
TTITLE1=Dime
TTITLE2=Paula C
TTITLE3=Tiburon
TTITLE4=El Telefonito
TTITLE5=Ligia Elena
TTITLE6=Pablo Pueblo
TTITLE7=Juan Pachanga
TTITLE8=Sin Tu Cariño
TTITLE9=El Cantante
TTITLE10=No Hay Chance
TTITLE11=Plastico
EXTD=YEAR: 1995
EXTT0=
EXTT1=
EXTT2=
EXTT3=
EXTT4=
EXTT5=
EXTT6=
EXTT7=
EXTT8=
EXTT9=
EXTT10=
EXTT11=
PLAYORDER=
